inDegrees=no
num_controls=7
num_derivatives=13
num_iterations=110
num_multipliers=7
num_parameters=0
num_slacks=7
num_states=26
objective=4.122576
objective_accelerations=0.299813
objective_balance=0.054171
objective_effort=0.314699
objective_height=3.392261
objective_ligament=0.061632
solver_duration=1896.571918
status=Solve_Succeeded
success=true
DataType=double
version=3
OpenSimVersion=4.4-2022-07-23-0e9fedc
endheader
time	/jointset/ground_pelvis/pelvis_tilt/value	/jointset/ground_pelvis/pelvis_tx/value	/jointset/ground_pelvis/pelvis_ty/value	/jointset/hip_l/hip_flexion_l/value	/jointset/hip_l/hip_adduction_l/value	/jointset/hip_l/hip_rotation_l/value	/jointset/back/lumbar_extension/value	/jointset/patellofemoral_l/patellar_flexion_l/value	/jointset/knee_l/knee_flexion_l/value	/jointset/knee_l/knee_adduction_l/value	/jointset/knee_l/knee_rotation_l/value	/jointset/ankle_l/ankle_angle_l/value	/jointset/subtalar_l/subtalar_angle_l/value	/jointset/ground_pelvis/pelvis_tilt/speed	/jointset/ground_pelvis/pelvis_tx/speed	/jointset/ground_pelvis/pelvis_ty/speed	/jointset/hip_l/hip_flexion_l/speed	/jointset/hip_l/hip_adduction_l/speed	/jointset/hip_l/hip_rotation_l/speed	/jointset/back/lumbar_extension/speed	/jointset/patellofemoral_l/patellar_flexion_l/speed	/jointset/knee_l/knee_flexion_l/speed	/jointset/knee_l/knee_adduction_l/speed	/jointset/knee_l/knee_rotation_l/speed	/jointset/ankle_l/ankle_angle_l/speed	/jointset/subtalar_l/subtalar_angle_l/speed	/forceset/tau_hip_flexion_l	/forceset/tau_hip_adduction_l	/forceset/tau_hip_rotation_l	/forceset/tau_knee_flexion_l	/forceset/tau_ankle_angle_l	/forceset/tau_subtalar_angle_l	/forceset/tau_lumbar_extension	lambda_cid13_p0	lambda_cid13_p1	lambda_cid13_p2	lambda_cid13_p3	lambda_cid13_p4	lambda_cid13_p5	lambda_cid14_p0	/jointset/ground_pelvis/pelvis_tilt/accel	/jointset/ground_pelvis/pelvis_tx/accel	/jointset/ground_pelvis/pelvis_ty/accel	/jointset/hip_l/hip_flexion_l/accel	/jointset/hip_l/hip_adduction_l/accel	/jointset/hip_l/hip_rotation_l/accel	/jointset/back/lumbar_extension/accel	/jointset/patellofemoral_l/patellar_flexion_l/accel	/jointset/knee_l/knee_flexion_l/accel	/jointset/knee_l/knee_adduction_l/accel	/jointset/knee_l/knee_rotation_l/accel	/jointset/ankle_l/ankle_angle_l/accel	/jointset/subtalar_l/subtalar_angle_l/accel	gamma_cid13_p0	gamma_cid13_p1	gamma_cid13_p2	gamma_cid13_p3	gamma_cid13_p4	gamma_cid13_p5	gamma_cid14_p0
0	-0.1601677571193806	0.05857475178202329	0.8979987603188586	0.3774920279260975	-0.2591368663717606	-0.2729718366174139	-0.0126506700172305	0.03223623128433508	0.03223623128433527	-0.1745328082010329	0.1745286970217463	-0.04231376238535053	-0.009261277727365546	0	0	0	0	0	0	0	0	0	0	0	0	0	0.1401221442046494	-0.08497862726145895	-0.05441402486201845	-0.3263554268049975	0.369479310979047	-0.05091874552412507	-0.07874206106774093	76.28595159319849	2.804695095045052	5.949278384455307	-33.6100720585593	-599.8377474752436	-72.73618300454562	-39.07500758189051	-2.434468585756209	-1.025739357534986	-0.7465388907871591	8.42800906453505	-1.077435082277149	2.798212997953586	-4.852264352149538	7.924103975012903	7.92410397501176	0.1126551106386254	-0.001565128837225047	2.094552127933551	-0.6157959902201677	-4.405031714875317e-08	4.846383623149943e-08	9.553102432434466e-08	1.900182605947652e-08	-7.027582506648892e-09	-6.983329377820658e-08	-1.434176558105221e-08
0.01	-0.1602840719384747	0.05852287374649	0.8979622950941487	0.3779030908307895	-0.259189981863772	-0.2728325878843569	-0.01289377990247289	0.03262300904264312	0.03262300904249783	-0.1745280185922983	0.1745260304090305	-0.04221370252450512	-0.009292395148845731	-0.02306396649743889	-0.01046088332459926	-0.007269680006779887	0.08190281281187792	-0.01053947835233573	0.02768808952155136	-0.04833051069940185	0.07698525155754356	0.07698525155756129	0.001003253929882931	-0.0005123675858038892	0.01974918192597537	-0.006201985618797626	0.1296015568551611	-0.0947154281008689	-0.05158410983638111	-0.308512423240826	0.339007250866073	-0.0305267618428134	-0.07132071245689085	67.21170760597455	-4.188007577770829	6.750329490668332	-26.9647502713635	-600.3758144054621	-85.58790115101625	-39.08590184617206	-2.212517213967125	-1.06905044874513	-0.7136792225628469	8.024945666433775	-1.029685266188107	2.729846208898013	-4.779724476088799	7.530193598449896	7.530193598453117	0.1009827342504797	-0.07294021128587724	1.87567870498135	-0.6191931870418942	-5.029859758421179e-08	8.308439108912296e-08	8.739326064468449e-08	2.763966236018504e-08	-7.545508965107975e-08	-2.143103775671309e-08	-1.285209302190189e-08
0.02	-0.1606250577290156	0.05836382935194439	0.8978538337359813	0.3791238875190724	-0.2593459883502328	-0.2724213104003362	-0.01361145090417669	0.03376853088701883	0.03376853088700563	-0.1745118319868504	0.1745188665933459	-0.04192403534840181	-0.009384891094381292	-0.04493419428429293	-0.02143327180246246	-0.01439922669151656	0.1619467567002605	-0.02057819888402746	0.05440575022877641	-0.0949122232889166	0.1517488172081033	0.1517488172081672	0.00227939586317035	-0.000899440684935324	0.03792146305403062	-0.01227570481095299	0.1190809695073737	-0.1044522289395073	-0.04875419480953498	-0.2906694196752687	0.3085351907539425	-0.01013477816057228	-0.06389936384557732	58.20133884148236	-11.19229290661617	7.553686100774158	-20.48089416657938	-599.9729436594654	-98.34449325660889	-39.11824699406956	-2.195720843640778	-1.128040388186533	-0.718512226379124	8.056235279834203	-0.9772835181561776	2.604127235088065	-4.502504730172052	7.47976679361614	7.479766793620681	0.1672327113039432	0.02349376849822294	1.779171968348716	-0.590142704899578	-5.65468780196704e-08	1.177049459467465e-07	7.925549696502434e-08	3.627749866089355e-08	-1.438825967955106e-07	2.697121826478039e-08	-1.136242046275157e-08
0.03	-0.1611796954673984	0.05809428354076158	0.8976747060354318	0.3811350258167718	-0.2596001691832852	-0.2717473050813061	-0.01478556135362275	0.03565137981289587	0.03565137981293409	-0.1744821390545958	0.1745084539453003	-0.04145795653602209	-0.009537197430357506	-0.06586490989238819	-0.0323818666406827	-0.02140636904450963	0.2398524559177475	-0.030209015160315	0.08027773274804441	-0.1395763718086046	0.2245089127061326	0.2245089127061154	0.003629232064929678	-0.001172902572802079	0.05528089179265095	-0.0181425598214263	0.1146738920937912	-0.09800614441405493	-0.04816336502492687	-0.2869107767042818	0.3054013826736956	-0.0138890170180349	-0.06015713059684298	57.04730943342854	-9.499619851129181	7.443574597258323	-20.31330365126923	-600.3474533618798	-94.18536728151751	-39.17109665561689	-2.022485517644125	-1.064158172577917	-0.6888526367012106	7.59346204727281	-0.9486558657996971	2.561087823536146	-4.398345694192231	7.127324905015422	7.127324905000343	0.114390967819166	-0.05124530495111078	1.712313356891388	-0.5785333511290418	-7.385223617436025e-08	1.133267726145616e-07	1.098882399772868e-07	5.060701702485891e-08	-2.217904225051131e-07	1.794886448348653e-08	-1.755952536170279e-08
0.04	-0.1619397880814833	0.05771807395300838	0.8974260994319669	0.3839123660675769	-0.2599491932157865	-0.2708181091244177	-0.01639630844451141	0.03825246848920034	0.03825246848920614	-0.1744398413815484	0.174495610850744	-0.0408186864302009	-0.009746887606838759	-0.08602516943051608	-0.04276602711654283	-0.02829500727459482	0.3151871473179149	-0.03954683877395564	0.1054438777949059	-0.182239551581277	0.2953967672889295	0.2953967672888106	0.004800343994933669	-0.001385529961534042	0.07255972174218182	-0.02375247291222991	0.1102668146801031	-0.09156005988878133	-0.04757253524066179	-0.2831521337334333	0.3022675745933145	-0.01764325587569829	-0.05641489734801988	55.95316322364182	-7.815057849052839	7.332046956837281	-20.2967467641863	-599.8547298887149	-89.93175143675714	-39.24330165825978	-2.041629629647247	-1.015153515714636	-0.694811401797551	7.542033716370304	-0.918684985626838	2.462959740606486	-4.10231098076895	7.105318610569728	7.105318610570158	0.1314878569527934	0.03566066832546391	1.763052210530671	-0.5387543209657024	-9.138557531295178e-08	1.081445017939271e-07	1.413203748801043e-07	6.505388965816978e-08	-2.998937187005955e-07	7.742498128939303e-09	-2.391512051752207e-08
0.05	-0.1628977912418712	0.05724033169980622	0.8971090250052297	0.3874312416171753	-0.2603899181015298	-0.2696409172747193	-0.01842392469273536	0.04155333125556442	0.04155333125560405	-0.1743864599776731	0.1744811257152623	-0.04000759182050668	-0.01001133665025422	-0.1054393616671943	-0.0527380298629399	-0.0351127735115519	0.3882189842706379	-0.04852526553324028	0.1298751163719684	-0.2229975657275971	0.3644567707626575	0.3644567707626144	0.005873793122153638	-0.001505932392414301	0.0895800573693273	-0.029088288594576	0.1042174968484577	-0.08895098333808991	-0.04644856319378494	-0.2765308069079406	0.2928003080629475	-0.01549342990584391	-0.05169364998059708	53.02072846697977	-8.269455759830057	7.443527332489484	-18.6548431289595	-599.5419633115522	-89.81224081096843	-39.33346808006855	-1.870903857547597	-0.9815514778371938	-0.6742541603484556	7.128400754329919	-0.8765092164017241	2.415279559805092	-4.019626780654797	6.758493767877069	6.758493767888428	0.09498197485443283	-0.03507468115272409	1.659646254074571	-0.5236701270415715	-1.012952960927439e-07	1.144610433049137e-07	1.541031456168716e-07	7.478301910933948e-08	-3.519064302385989e-07	1.357965287530707e-08	-2.625388561717509e-08
0.06	-0.164045854291978	0.05666420385439307	0.8967239739309835	0.3916693639501178	-0.2609182447939368	-0.2682229983104673	-0.02085053711225567	0.04553522456703295	0.04553522456703413	-0.1743224023754351	0.1744655997589599	-0.03902866945148729	-0.01032767883752598	-0.1240371473785936	-0.06244314555873874	-0.0418903367763876	0.4590365040076783	-0.05706720010536443	0.1535893006909768	-0.2620387858375497	0.4316028763204864	0.4316028763205214	0.006935583619238199	-0.001593694117606822	0.106125273607192	-0.03413110168383834	0.09816817901548891	-0.08634190678762481	-0.04532459114722402	-0.2699094800832055	0.2833330415322453	-0.01334360393628041	-0.0469724026139403	50.142061671029	-8.731533616814527	7.55425284895893	-17.15462965518029	-598.4448838605407	-89.60962118243938	-39.44016062529502	-1.878348324591415	-0.9617761055951346	-0.6867708073732773	7.099170273233765	-0.8313865481947939	2.319548888995455	-3.758952173495427	6.722539027389939	6.722539027390828	0.1291561309256242	0.04218880946322674	1.668028332674331	-0.4801538023490285	-1.108840224153235e-07	1.212617453351265e-07	1.661006799676999e-07	8.431350674231374e-08	-4.028205908436558e-07	2.00923242996081e-08	-2.842352103025267e-08
0.07000000000000001	-0.1653761693618052	0.05599248356544036	0.8962712320136502	0.3966050016050691	-0.2615298444846916	-0.266571593588304	-0.02365867577753274	0.05017930760436171	0.05017930760437393	-0.1742479585408125	0.1744495419220524	-0.03788644214575884	-0.01069298118237424	-0.1418982290698111	-0.07184205392115975	-0.04865773932745734	0.527709663410909	-0.06518300006840444	0.1765736960258585	-0.2992992910793273	0.4968853234498869	0.4968853234498676	0.007928444758991331	-0.001615246435889793	0.1222508925763132	-0.03888251246477402	0.09225864025560254	-0.08287798478466735	-0.04433794606515488	-0.2645035116524679	0.2757433721261746	-0.01241279070161913	-0.0422786239921334	47.79437269497806	-8.772372878818254	7.615191324663898	-16.03275533877166	-597.7765317625855	-88.57432602128497	-39.56164807703239	-1.720847029923939	-0.9201024771586164	-0.6717600558224786	6.694171400228228	-0.7912341022273814	2.270168758747433	-3.666151278324164	6.381842113003023	6.381842112994418	0.0806734182452892	-0.02395608656363973	1.574426629456007	-0.4656431303237477	-1.187512852173905e-07	1.108028914481382e-07	1.85270806973358e-07	9.094399434930826e-08	-4.409735803486515e-07	1.36242485472778e-08	-3.240439315871492e-08
